<?xml version="1.0" encoding="iso-8859-1"?>
<!-- Generator: Adobe Illustrator 19.0.1, SVG Export Plug-In . SVG Version: 6.00 Build 0)  -->
<svg version="1.1" xmlns="http://www.w3.org/2000/svg" xmlns:xlink="http://www.w3.org/1999/xlink" x="0px" y="0px"
	 viewBox="0 0 56 56" style="enable-background:new 0 0 56 56;" xml:space="preserve" width="56px" height="56px">
<g id="Layer_1_1_">
	<g>
		<path style="fill:#9BDAF3;" d="M28,50.5C15.593,50.5,5.5,40.406,5.5,28C5.5,15.593,15.593,5.5,28,5.5
			c12.406,0,22.5,10.093,22.5,22.5C50.5,40.406,40.406,50.5,28,50.5z"/>
		<g>
			<path style="fill:#005E93;" d="M28,7c11.579,0,21,9.421,21,21s-9.421,21-21,21S7,39.579,7,28S16.421,7,28,7 M28,4
				C14.745,4,4,14.745,4,28c0,13.255,10.745,24,24,24c13.255,0,24-10.745,24-24C52,14.745,41.255,4,28,4L28,4z"/>
		</g>
	</g>
	<path style="fill:#005E93;" d="M36.093,19.365L39,21.637L27.403,37.694C26.756,38.555,25.79,38.99,24.82,39
		c-0.992,0.01-1.988-0.426-2.65-1.308l-5.325-7.54l3.088-2.242l4.858,6.909L36.093,19.365z"/>
	<rect style="fill:none;" width="56" height="56"/>
</g>
<g id="Layer_1">
</g>
</svg>
